<?xml version="1.0" encoding="UTF-8" standalone="no"?>
<svg
   width="2386"
   height="500"
   viewBox="0 0 2386 500"
   fill="none"
   version="1.1"
   id="svg26"
   sodipodi:docname="MarmotGraph_logo_text.svg"
   xmlns:inkscape="http://www.inkscape.org/namespaces/inkscape"
   xmlns:sodipodi="http://sodipodi.sourceforge.net/DTD/sodipodi-0.dtd"
   xmlns="http://www.w3.org/2000/svg"
   xmlns:svg="http://www.w3.org/2000/svg">
  <defs
     id="defs26" />
  <sodipodi:namedview
     id="namedview26"
     pagecolor="#ffffff"
     bordercolor="#000000"
     borderopacity="0.25"
     inkscape:showpageshadow="2"
     inkscape:pageopacity="0.0"
     inkscape:pagecheckerboard="0"
     inkscape:deskcolor="#d1d1d1">
    <inkscape:page
       x="0"
       y="0"
       width="2386"
       height="500"
       id="page2"
       margin="0"
       bleed="0" />
  </sodipodi:namedview>
  <path
     d="m 186.846,235.15 16.234,3.362 c 2.24,-4.483 6.718,-7.285 11.756,-7.285 2.799,0 5.038,1.121 7.278,2.242 l 99.643,-89.104 c 0,0 -1.679,-4.483 -1.679,-7.285 0,-3.923 1.679,-7.845 4.478,-10.647 L 285.371,81.0403 186.287,235.71 Z"
     fill="#3B3B3B"
     id="path1"
     style="fill:#b3b3b3" />
  <path
     d="M 399.006,201.526 386.69,141.002 c 0,0 0,-3.922 1.12,-5.604 l 26.87,-45.3918 11.196,-29.1407 -76.132,68.3685 c 0,0 1.679,4.483 1.679,7.285 0,2.802 -0.56,4.483 -1.679,6.725 l 49.262,57.721 z"
     fill="#3B3B3B"
     id="path2"
     style="fill:#b3b3b3" />
  <path
     d="M 289.845,73.7537 328.471,119.146 316.155,32.2842 Z"
     fill="#3B3B3B"
     id="path3"
     style="fill:#b3b3b3" />
  <path
     d="m 335.749,152.771 c -3.359,0 -6.158,-1.12 -8.397,-2.802 l -99.644,89.104 c 0,0 0.56,2.802 1.12,4.483 l 152.265,30.262 z"
     fill="#3B3B3B"
     id="path4"
     style="fill:#b3b3b3" />
  <path
     d="m 336.872,121.389 c 0,0 5.038,1.12 7.277,2.802 L 429.798,47.4159 322.877,25 l 13.435,96.949 z"
     fill="#3B3B3B"
     id="path5"
     style="fill:#b3b3b3" />
  <path
     d="m 226.593,250.841 c 0,0 -2.239,3.362 -3.918,4.483 l 47.582,125.529 c 0,0 1.12,0 1.68,0 6.158,0 11.756,3.923 13.995,8.966 l 63.816,-14.01 -1.679,-35.305 c 0,0 0,-2.802 1.12,-3.922 l 28.549,-56.04 -150.585,-29.701 z"
     fill="#3B3B3B"
     id="path6"
     style="fill:#b3b3b3" />
  <path
     d="m 287.607,399.346 65.497,30.822 -2.24,-46.513 -62.697,14.01 c 0,0 0,1.121 0,1.681 z"
     fill="#3B3B3B"
     id="path7"
     style="fill:#b3b3b3" />
  <path
     d="m 157.176,429.608 c 0,0 0,0.561 -0.56,1.121 L 90,475 h 83.41 z"
     fill="#3B3B3B"
     id="path8"
     style="fill:#b3b3b3" />
  <path
     d="m 358.142,445.86 -32.469,26.899 68.295,-0.561 z"
     fill="#3B3B3B"
     id="path9"
     style="fill:#b3b3b3" />
  <path
     d="m 344.144,149.969 c 0,0 -0.559,0 -1.119,0.56 l 43.104,114.882 11.756,-52.678 -53.741,-63.325 z"
     fill="#3B3B3B"
     id="path10"
     style="fill:#b3b3b3" />
  <path
     d="m 447.71,257.566 -41.984,-42.591 -13.435,56.601 47.022,7.845 z"
     fill="#3B3B3B"
     id="path11"
     style="fill:#b3b3b3" />
  <path
     d="M 141.502,305.759 203.08,250.84 c 0,0 -1.12,-2.802 -1.12,-4.483 l -19.592,-3.923 -40.866,63.886 z"
     fill="#3B3B3B"
     id="path12"
     style="fill:#b3b3b3" />
  <path
     d="m 260.741,386.457 c 0,0 1.679,-1.681 2.799,-2.802 L 215.957,258.126 c 0,0 -0.559,0 -1.119,0 -2.239,0 -4.479,-1.121 -6.718,-2.242 l -76.692,68.929 129.313,61.084 z"
     fill="#3B3B3B"
     id="path13"
     style="fill:#b3b3b3" />
  <path
     d="m 313.36,472.758 40.305,-33.063 -69.414,-33.064 c -2.799,3.363 -7.278,5.604 -11.756,5.604 -5.598,0 -10.636,-3.362 -13.435,-7.845 l -95.165,20.734 17.913,49.315 132.112,-1.12 z"
     fill="#3B3B3B"
     id="path14"
     style="fill:#b3b3b3" />
  <path
     d="m 131.428,333.779 26.87,84.06 97.965,-21.856 c 0,-1.12 0,-1.681 0.56,-2.802 z"
     fill="#3B3B3B"
     id="path15"
     style="fill:#b3b3b3" />
  <path
     d="m 752.801,357.316 h -30.788 l -4.479,-69.489 c -1.679,-24.658 -2.799,-50.436 -2.239,-67.808 L 685.066,339.384 H 654.837 L 622.369,219.458 c 1.12,22.416 0,45.393 -1.12,68.929 l -3.918,68.369 h -30.789 l 13.435,-166.438 h 40.865 l 29.669,116.563 27.99,-116.563 h 41.425 l 12.875,166.438 z"
     fill="#1E1E1E"
     id="path16"
     style="fill:#e6e6e6" />
  <path
     d="m 860.84,318.65 h -54.86 l -10.076,38.667 h -33.028 l 51.501,-166.438 h 39.186 l 51.501,166.438 H 871.476 L 861.4,318.65 Z m -6.158,-24.098 -21.272,-79.576 -21.272,79.576 z"
     fill="#1E1E1E"
     id="path17"
     style="fill:#e6e6e6" />
  <path
     d="m 975.038,290.63 h -20.153 v 66.687 H 922.977 V 190.879 h 49.822 c 43.661,0 66.051,15.691 66.051,48.754 0,22.416 -11.19,35.866 -33.58,44.832 l 43.66,72.292 h -36.39 l -36.942,-66.688 z m -20.153,-22.977 h 19.593 c 19.593,0 30.792,-7.845 30.792,-28.02 0,-17.932 -10.079,-25.778 -33.591,-25.778 h -17.354 v 53.798 z"
     fill="#1E1E1E"
     id="path18"
     style="fill:#e6e6e6" />
  <path
     d="m 1228.06,357.316 h -30.79 l -4.47,-69.489 c -1.68,-24.658 -2.8,-50.436 -2.24,-67.808 l -30.23,119.365 h -30.23 l -32.47,-119.926 c 1.12,22.416 0,45.393 -1.12,68.929 l -3.92,68.369 h -30.79 l 13.44,-166.438 h 40.86 l 29.67,116.563 27.99,-116.563 h 41.43 l 12.87,166.438 z"
     fill="#1E1E1E"
     id="path19"
     style="fill:#e6e6e6" />
  <path
     d="m 1392.65,273.817 c 0,54.919 -27.99,86.862 -72.78,86.862 -44.78,0 -72.77,-30.822 -72.77,-86.862 0,-56.04 28.55,-86.862 72.77,-86.862 44.23,0 72.78,30.822 72.78,86.862 z m -112.52,0 c 0,44.832 15.11,62.204 39.18,62.204 24.08,0 39.19,-17.372 39.19,-62.765 0,-45.392 -14,-62.204 -39.19,-62.204 -25.19,0 -39.18,17.933 -39.18,62.765 z"
     fill="#1E1E1E"
     id="path20"
     style="fill:#e6e6e6" />
  <path
     d="m 1517.48,220.018 h -43.1 v 141.221 h -31.91 V 220.018 h -44.78 V 194.8 h 123.15 z"
     fill="#1E1E1E"
     id="path21"
     style="fill:#e6e6e6" />
  <path
     d="m 1709.49,207.13 -16.79,17.933 c -11.2,-8.967 -20.72,-13.45 -34.71,-13.45 -23.51,0 -43.66,17.933 -43.66,62.765 0,44.832 13.43,62.765 39.18,62.765 9.52,0 18.48,-1.682 26.31,-6.725 v -43.151 h -25.19 l -3.36,-23.537 h 59.9 v 81.258 c -16.79,10.087 -36.39,16.252 -57.1,16.252 -47.58,0 -73.33,-29.701 -73.33,-86.862 0,-57.161 34.71,-86.862 76.13,-86.862 22.95,0 39.19,7.846 53.18,19.614 z"
     fill="#3B3B3B"
     id="path22"
     style="fill:#b3b3b3" />
  <path
     d="m 1794.58,290.63 h -20.15 v 66.687 h -31.91 V 190.879 h 49.26 c 43.66,0 66.05,15.691 66.05,48.754 0,22.416 -11.19,35.866 -33.58,44.832 l 43.66,72.292 h -36.39 l -36.94,-66.688 z m -20.15,-22.977 h 19.59 c 19.59,0 30.79,-7.845 30.79,-28.02 0,-17.932 -10.08,-25.778 -33.59,-25.778 h -17.35 v 53.798 z"
     fill="#3B3B3B"
     id="path23"
     style="fill:#b3b3b3" />
  <path
     d="m 1967.56,318.65 h -54.86 l -10.08,38.667 h -33.03 l 51.5,-166.438 h 39.19 l 51.5,166.438 h -33.59 l -10.07,-38.667 z m -6.16,-24.098 -21.27,-79.576 -21.28,79.576 z"
     fill="#3B3B3B"
     id="path24"
     style="fill:#b3b3b3" />
  <path
     d="m 2146.69,244.117 c 0,38.107 -27.43,55.479 -64.94,55.479 h -19.59 v 58.282 h -31.91 V 191.439 h 49.26 c 41.99,0 67.18,17.373 67.18,53.238 z m -33.59,0 c 0,-20.735 -12.87,-29.701 -34.15,-29.701 h -17.35 v 61.083 h 17.35 c 21.28,0 34.15,-7.285 34.15,-31.382 z"
     fill="#3B3B3B"
     id="path25"
     style="fill:#b3b3b3" />
  <path
     d="m 2263.13,282.784 h -59.34 v 74.533 h -31.91 V 190.879 h 31.91 v 66.687 h 59.34 v -66.687 h 31.91 v 166.438 h -31.91 z"
     fill="#3B3B3B"
     id="path26"
     style="fill:#b3b3b3" />
</svg>
